<?xml version="1.0" encoding="utf-8"?>
<!-- Generator: Adobe Illustrator 26.4.1, SVG Export Plug-In . SVG Version: 6.00 Build 0)  -->
<svg version="1.1" id="Artwork" xmlns="http://www.w3.org/2000/svg" xmlns:xlink="http://www.w3.org/1999/xlink" x="0px" y="0px"
	 viewBox="0 0 827.9 288.6" style="enable-background:new 0 0 827.9 288.6;" xml:space="preserve">
<style type="text/css">
	.st0{fill:#081477;}
	.st1{fill:#0055D9;}
</style>
<g>
	<path class="st0" d="M376.4,122.8c-3-5.4-10.5-11.9-22.8-11.9c-19,0-34.4,14.5-34.4,35.8c0,19.1,12.7,36,34.4,36
		c9.5,0,18.5-3.9,22.8-11.8v9.7h16.1v-67.6h-16.1V122.8z M376.5,147.3c-0.2,3.3-1,6.5-2.6,9.5c-3.1,6.2-9,10.8-18,10.8
		c-14.5,0-20.6-12.2-20.6-20.6v-0.1c0-10.5,7.4-21.1,20.4-21.1c9.7,0,16,5.5,18.8,11.9C376,140.7,376.6,144.1,376.5,147.3"/>
	<path class="st0" d="M445.6,110.8c-11.2,0-19.1,5.2-23.9,11.9v-9.9h-15.1v91.3h16.1v-23.6v-9c2.7,4.3,9.9,11.1,23,11.1
		c19.8,0,33.5-16.1,33.5-35.3C479.3,130.9,469.3,110.8,445.6,110.8 M463.1,146.8c0,11.1-8.3,20.8-20.6,20.8c-5.8,0-11-2.3-14.7-6
		c-3.7-3.7-5.9-8.9-5.9-14.7c0-5.9,2.2-11.2,5.8-14.9c3.7-3.8,8.7-6.2,14.7-6.2c13.7,0,20.7,11.1,20.7,20.8V146.8z"/>
	<rect x="489.9" y="112.9" class="st0" width="16.1" height="67.6"/>
	<path class="st0" d="M573.1,89.4v22.4v9.9c-2.5-3.9-9.7-10.8-22.7-10.8c-18.4,0-34,13.9-34,35.8c0,19.7,13.4,36,34.2,36
		c13.8,0,20.2-6.8,23.2-11.8v9.7h15.4V89.4H573.1z M568.3,161.3c-3.8,3.8-9.1,6.2-15,6.2c-12.4,0-20.7-9.4-20.7-20.8v-0.1
		c0-10.6,7.6-20.7,20.8-20.7c5.8,0,11,2.2,14.7,5.9c3.7,3.6,6,8.6,6,14.5C574.3,152.2,572.1,157.5,568.3,161.3"/>
	<path class="st0" d="M498,83.7c-5.5,0-9.9,4.5-9.9,9.9c0,5.5,4.5,9.9,9.9,9.9c5.5,0,9.9-4.5,9.9-9.9
		C507.9,88.2,503.4,83.7,498,83.7"/>
	<path class="st0" d="M312.1,119.4c0-19.7-14.2-30-35.2-30h-31.7v91.1h18.4v-31.9h0.7c2.1,0,3.4,1.9,3.4,1.9s12.3,14.1,16.7,19.3
		c7.2,8.3,12.6,11.7,21.3,11.7c4.3,0,8.4-1.4,11.4-5.1l-31.3-28.7C301.3,145.2,312.1,134.7,312.1,119.4 M263.6,102.9h9.9
		c12.6,0,21,5.4,21,16.5c0,12-10.8,16.3-21,16.3l-9.9,0V102.9z"/>
</g>
<path class="st1" d="M158.5,166.4c-1.3-0.4-1.4-2.2,0.1-2.9c25.9-12.3,24.2-40.1,24.2-40.1c-0.1-28.2-20.8-54.4-54.2-54.2
	c-37.2,0.2-59.5,29.4-59.4,64c0.3,60.5,46.5,83.7,60.9,83.6l-0.1-24.1c0-3.8,0-6.8,2.3-6.8c0,0,14.9,14.9,31.4,14.8
	c25.8-0.1,34.5-21.7,34.5-21.7L158.5,166.4z M128.7,147.9c-13.2,0.1-23.9-10.5-23.9-23.7c-0.1-13.2,10.5-23.9,23.7-23.9
	c13.2-0.1,23.9,10.5,23.9,23.7C152.5,137.2,141.9,147.9,128.7,147.9"/>
<g>
	<path class="st1" d="M606.2,180l22.3-68.9H648l22.4,68.9h-14.9l-19.2-62h3.2l-18.7,62H606.2z M620.2,164.5v-10.9h35.9v10.9H620.2z"
		/>
	<path class="st1" d="M678.8,180v-68.9h27.1c4.9,0,9.1,0.9,12.6,2.8c3.6,1.9,6.3,4.5,8.2,8c1.9,3.4,2.9,7.5,2.9,12.2
		c0,4.4-1,8.3-2.9,11.7c-1.9,3.4-4.8,6.1-8.5,8c-3.7,1.9-8.2,2.9-13.3,2.9h-13.2v-10.8h10.7c4.1,0,7.3-1,9.4-3
		c2.2-2,3.2-4.9,3.2-8.7c0-3.6-1-6.3-3.1-8.2c-2-1.9-4.9-2.8-8.5-2.8h-10.6v57H678.8z"/>
	<path class="st1" d="M742.8,180v-68.9H757V180H742.8z"/>
</g>
</svg>
